<?xml version="1.0" encoding="iso-8859-1"?>
<!-- Uploaded to: SVG Repo, www.svgrepo.com, Generator: SVG Repo Mixer Tools -->
<svg height="800px" width="800px" version="1.1" id="Layer_1" xmlns="http://www.w3.org/2000/svg" xmlns:xlink="http://www.w3.org/1999/xlink" 
	 viewBox="0 0 512.001 512.001" xml:space="preserve">
<path style="fill:#84D88B;" d="M374.569,299.116H137.432v-86.232h237.137V299.116z"/>
<path style="fill:#91F18B;" d="M503.916,256l-10.779,118.568c0,11.906-9.651,21.558-21.558,21.558h-97.011
	c-11.906,0-21.558-9.651-21.558-21.558V256V137.432c0-11.906,9.651-21.558,21.558-21.558h97.011
	c11.906,0,21.558,9.651,21.558,21.558L503.916,256z M137.432,115.874H40.422c-11.906,0-21.558,9.651-21.558,21.558L8.085,256
	l10.779,118.568c0,11.906,9.651,21.558,21.558,21.558h97.011c11.906,0,21.558-9.651,21.558-21.558V256V137.432
	C158.99,125.526,149.339,115.874,137.432,115.874z"/>
<path style="fill:#BBFFAB;" d="M158.99,137.432v21.558H16.904l1.96-21.558c0-11.906,9.651-21.558,21.558-21.558h97.011
	C149.339,115.874,158.99,125.526,158.99,137.432z M493.137,137.432c0-11.906-9.651-21.558-21.558-21.558h-97.011
	c-11.906,0-21.558,9.651-21.558,21.558v21.558h142.086L493.137,137.432z"/>
<path style="fill:#5F8E5F;" d="M363.79,299.116H148.211V256H363.79V299.116z"/>
<path style="fill:#6BAF6E;" d="M8.085,256H158.99v118.568c0,11.906-9.651,21.558-21.558,21.558H40.422
	c-11.906,0-21.558-9.651-21.558-21.558L8.085,256z M353.011,256v118.568c0,11.906,9.651,21.558,21.558,21.558h97.011
	c11.906,0,21.558-9.651,21.558-21.558L503.916,256H353.011z"/>
<path style="fill:#5F8E5F;" d="M158.99,363.79v10.779c0,11.906-9.651,21.558-21.558,21.558H40.422
	c-11.906,0-21.558-9.651-21.558-21.558l-0.98-10.779H158.99z M353.011,363.79v10.779c0,11.906,9.651,21.558,21.558,21.558h97.011
	c11.906,0,21.558-9.651,21.558-21.558l0.98-10.779H353.011z"/>
<path d="M10.779,137.432c0-16.344,13.297-29.642,29.642-29.642h97.011c16.345,0,29.642,13.298,29.642,29.642V204.8h153.6
	c4.465,0,8.084,3.618,8.084,8.084c0,4.466-3.62,8.084-8.084,8.084h-153.6v2.695c0,4.466-3.62,8.084-8.084,8.084
	c-4.465,0-8.084-3.618-8.084-8.084v-86.232c0-7.43-6.044-13.474-13.474-13.474H40.422c-7.43,0-13.474,6.044-13.474,13.474
	c0,4.466-3.62,8.084-8.084,8.084S10.779,141.898,10.779,137.432z M353.011,231.748c4.465,0,8.084-3.618,8.084-8.084v-86.232
	c0-7.43,6.044-13.474,13.474-13.474h97.011c7.43,0,13.474,6.044,13.474,13.474c0,4.466,3.62,8.084,8.084,8.084
	s8.084-3.618,8.084-8.084c0-16.344-13.297-29.642-29.642-29.642h-97.011c-16.345,0-29.642,13.298-29.642,29.642v86.232
	C344.927,228.129,348.546,231.748,353.011,231.748z M242.527,266.779c0-4.466-3.62-8.084-8.084-8.084h-67.368V256
	c0-4.466-3.62-8.084-8.084-8.084c-4.465,0-8.084,3.618-8.084,8.084v118.568c0,7.43-6.044,13.474-13.474,13.474H40.422
	c-7.43,0-13.474-6.044-13.474-13.474c0-0.245-0.011-0.488-0.033-0.732l-0.178-1.963h78.359c4.465,0,8.084-3.618,8.084-8.084
	s-3.62-8.084-8.084-8.084H25.266l-8.329-91.621h98.937c4.465,0,8.084-3.618,8.084-8.084s-3.62-8.084-8.084-8.084H16.937
	l7.038-77.415c0.404-4.446-2.873-8.377-7.319-8.782c-4.454-0.419-8.378,2.872-8.783,7.319l-7.826,86.073
	c-0.051,0.47-0.063,0.95-0.029,1.436v0.004c0.004,0.069,0.011,0.139,0.017,0.208l10.747,118.206
	c0.212,16.162,13.426,29.245,29.639,29.245h97.011c16.345,0,29.642-13.298,29.642-29.642v-99.705h67.368
	C238.907,274.864,242.527,271.245,242.527,266.779z M511.953,255.11l-7.826-86.073c-0.404-4.447-4.342-7.745-8.783-7.319
	c-4.446,0.404-7.723,4.335-7.319,8.782l7.038,77.417h-98.937c-4.465,0-8.084,3.618-8.084,8.084s3.62,8.084,8.084,8.084h98.937
	l-9.977,109.752c-0.023,0.244-0.033,0.487-0.033,0.732c0,7.43-6.044,13.474-13.474,13.474h-97.011
	c-7.43,0-13.474-6.044-13.474-13.474v-2.695h78.147c4.465,0,8.084-3.618,8.084-8.084s-3.62-8.084-8.084-8.084h-78.147V256
	c0-4.466-3.62-8.084-8.084-8.084s-8.084,3.618-8.084,8.084v2.695h-67.368c-4.465,0-8.084,3.618-8.084,8.084s3.62,8.084,8.084,8.084
	h67.368v16.168h-153.6c-4.465,0-8.084,3.618-8.084,8.084s3.62,8.084,8.084,8.084h153.6v67.368c0,16.344,13.297,29.642,29.642,29.642
	h97.011c16.213,0,29.428-13.083,29.64-29.247l10.747-118.206c0.007-0.069,0.012-0.139,0.017-0.208v-0.004
	C512.015,256.06,512.004,255.579,511.953,255.11z"/>
</svg>